HIERARCHY
ROOT Root
{
  OFFSET 0.0 0.0 0.0
  CHANNELS 6 Xposition Yposition Zposition Zrotation Yrotation Xrotation
  JOINT Hips
  {
    OFFSET 0.0 100.0 0.0
    CHANNELS 6 Xposition Yposition Zposition Zrotation Yrotation Xrotation
    JOINT Spine1
    {
      OFFSET -0.013727 5.003763 -0.053727
      CHANNELS 3 Zrotation Yrotation Xrotation
      JOINT Spine2
      {
        OFFSET -0.0 7.125301 -0.029825
        CHANNELS 3 Zrotation Yrotation Xrotation
        JOINT Chest
        {
          OFFSET -1e-06 7.550063 -0.815971
          CHANNELS 3 Zrotation Yrotation Xrotation
          JOINT Neck1
          {
            OFFSET -0.181677 26.311295 -0.553348
            CHANNELS 3 Zrotation Yrotation Xrotation
            JOINT Neck2
            {
              OFFSET -3e-06 7.709397 2.302585
              CHANNELS 3 Zrotation Yrotation Xrotation
              JOINT Head
              {
                OFFSET -5e-06 6.128916 1.953709
                CHANNELS 3 Zrotation Yrotation Xrotation
                JOINT HeadEnd
                {
                  OFFSET 0.003598 16.065403 -1.835379
                  CHANNELS 3 Zrotation Yrotation Xrotation
                }
                JOINT Jaw
                {
                  OFFSET 0.002637 0.475592 3.094941
                  CHANNELS 3 Zrotation Yrotation Xrotation
                }
                JOINT LeftEye
                {
                  OFFSET 3.206381 5.380205 7.586883
                  CHANNELS 3 Zrotation Yrotation Xrotation
                }
                JOINT RightEye
                {
                  OFFSET -3.22244 5.361869 7.558234
                  CHANNELS 3 Zrotation Yrotation Xrotation
                }
              }
            }
          }
          JOINT LeftShoulder
          {
            OFFSET 1.621652 23.237164 5.113413
            CHANNELS 3 Zrotation Yrotation Xrotation
            JOINT LeftArm
            {
              OFFSET 14.919846 2e-06 -5.502326
              CHANNELS 3 Zrotation Yrotation Xrotation
              JOINT LeftForeArm
              {
                OFFSET 28.739307 0.0 -0.002588
                CHANNELS 3 Zrotation Yrotation Xrotation
                JOINT LeftHand
                {
                  OFFSET 27.093981 -1e-06 0.002609
                  CHANNELS 3 Zrotation Yrotation Xrotation
                  JOINT LeftHandThumb1
                  {
                    OFFSET 2.276482 -1.392045 3.191413
                    CHANNELS 3 Zrotation Yrotation Xrotation
                    JOINT LeftHandThumb2
                    {
                      OFFSET 4.012836 -1.828127 1.641654
                      CHANNELS 3 Zrotation Yrotation Xrotation
                      JOINT LeftHandThumb3
                      {
                        OFFSET 2.798515 0.0 -3e-06
                        CHANNELS 3 Zrotation Yrotation Xrotation
                        JOINT LeftHandThumbEnd
                        {
                          OFFSET 3.180793 -4e-06 4e-06
                          CHANNELS 3 Zrotation Yrotation Xrotation
                        }
                      }
                    }
                  }
                  JOINT LeftHandIndex1
                  {
                    OFFSET 3.247555 -0.531998 2.296169
                    CHANNELS 3 Zrotation Yrotation Xrotation
                    JOINT LeftHandIndex2
                    {
                      OFFSET 6.364578 0.01206 0.1786
                      CHANNELS 3 Zrotation Yrotation Xrotation
                      JOINT LeftHandIndex3
                      {
                        OFFSET 3.662364 0.0 0.0
                        CHANNELS 3 Zrotation Yrotation Xrotation
                        JOINT LeftHandIndex4
                        {
                          OFFSET 2.329242 4e-06 4e-06
                          CHANNELS 3 Zrotation Yrotation Xrotation
                          JOINT LeftHandIndexEnd
                          {
                            OFFSET 2.759615 -0.180537 -0.113024
                            CHANNELS 3 Zrotation Yrotation Xrotation
                          }
                        }
                      }
                    }
                  }
                  JOINT LeftHandMiddle1
                  {
                    OFFSET 3.163495 0.240981 1.000332
                    CHANNELS 3 Zrotation Yrotation Xrotation
                    JOINT LeftHandMiddle2
                    {
                      OFFSET 6.19078 -0.259278 -1.002548
                      CHANNELS 3 Zrotation Yrotation Xrotation
                      JOINT LeftHandMiddle3
                      {
                        OFFSET 4.35652 -4e-06 -1e-06
                        CHANNELS 3 Zrotation Yrotation Xrotation
                        JOINT LeftHandMiddle4
                        {
                          OFFSET 2.996877 -8e-06 0.0
                          CHANNELS 3 Zrotation Yrotation Xrotation
                          JOINT LeftHandMiddleEnd
                          {
                            OFFSET 2.304287 -0.294569 -0.031741
                            CHANNELS 3 Zrotation Yrotation Xrotation
                          }
                        }
                      }
                    }
                  }
                  JOINT LeftHandRing1
                  {
                    OFFSET 2.882643 -0.053652 -0.322543
                    CHANNELS 3 Zrotation Yrotation Xrotation
                    JOINT LeftHandRing2
                    {
                      OFFSET 5.854541 -0.486202 -1.373841
                      CHANNELS 3 Zrotation Yrotation Xrotation
                      JOINT LeftHandRing3
                      {
                        OFFSET 4.350578 0.0 3e-06
                        CHANNELS 3 Zrotation Yrotation Xrotation
                        JOINT LeftHandRing4
                        {
                          OFFSET 2.651321 7e-06 2e-06
                          CHANNELS 3 Zrotation Yrotation Xrotation
                          JOINT LeftHandRingEnd
                          {
                            OFFSET 1.936105 0.077687 -7.1e-05
                            CHANNELS 3 Zrotation Yrotation Xrotation
                          }
                        }
                      }
                    }
                  }
                  JOINT LeftHandPinky1
                  {
                    OFFSET 2.8655 -0.310005 -1.600378
                    CHANNELS 3 Zrotation Yrotation Xrotation
                    JOINT LeftHandPinky2
                    {
                      OFFSET 5.087849 -1.331141 -1.77123
                      CHANNELS 3 Zrotation Yrotation Xrotation
                      JOINT LeftHandPinky3
                      {
                        OFFSET 3.070974 4e-06 0.0
                        CHANNELS 3 Zrotation Yrotation Xrotation
                        JOINT LeftHandPinky4
                        {
                          OFFSET 1.549672 0.0 1e-06
                          CHANNELS 3 Zrotation Yrotation Xrotation
                          JOINT LeftHandPinkyEnd
                          {
                            OFFSET 1.944893 -0.157802 0.057219
                            CHANNELS 3 Zrotation Yrotation Xrotation
                          }
                        }
                      }
                    }
                  }
                }
              }
            }
          }
          JOINT RightShoulder
          {
            OFFSET -1.380118 23.180309 5.214158
            CHANNELS 3 Zrotation Yrotation Xrotation
            JOINT RightArm
            {
              OFFSET -15.037196 1.2e-05 -5.545604
              CHANNELS 3 Zrotation Yrotation Xrotation
              JOINT RightForeArm
              {
                OFFSET -28.736639 2e-06 -0.002597
                CHANNELS 3 Zrotation Yrotation Xrotation
                JOINT RightHand
                {
                  OFFSET -27.133619 -0.0 0.002613
                  CHANNELS 3 Zrotation Yrotation Xrotation
                  JOINT RightHandThumb1
                  {
                    OFFSET -2.274032 -1.383988 3.163127
                    CHANNELS 3 Zrotation Yrotation Xrotation
                    JOINT RightHandThumb2
                    {
                      OFFSET -4.011429 -1.827466 1.640914
                      CHANNELS 3 Zrotation Yrotation Xrotation
                      JOINT RightHandThumb3
                      {
                        OFFSET -2.794935 -4e-06 -3e-06
                        CHANNELS 3 Zrotation Yrotation Xrotation
                        JOINT RightHandThumbEnd
                        {
                          OFFSET -3.183852 4e-06 1e-06
                          CHANNELS 3 Zrotation Yrotation Xrotation
                        }
                      }
                    }
                  }
                  JOINT RightHandIndex1
                  {
                    OFFSET -3.253266 -0.520057 2.282866
                    CHANNELS 3 Zrotation Yrotation Xrotation
                    JOINT RightHandIndex2
                    {
                      OFFSET -6.341917 0.012471 0.178266
                      CHANNELS 3 Zrotation Yrotation Xrotation
                      JOINT RightHandIndex3
                      {
                        OFFSET -3.654871 -8e-06 -0.0
                        CHANNELS 3 Zrotation Yrotation Xrotation
                        JOINT RightHandIndex4
                        {
                          OFFSET -2.327586 0.0 1e-06
                          CHANNELS 3 Zrotation Yrotation Xrotation
                          JOINT RightHandIndexEnd
                          {
                            OFFSET -2.76179 -0.180656 -0.113078
                            CHANNELS 3 Zrotation Yrotation Xrotation
                          }
                        }
                      }
                    }
                  }
                  JOINT RightHandMiddle1
                  {
                    OFFSET -3.168106 0.246593 1.00103
                    CHANNELS 3 Zrotation Yrotation Xrotation
                    JOINT RightHandMiddle2
                    {
                      OFFSET -6.180828 -0.258836 -1.000895
                      CHANNELS 3 Zrotation Yrotation Xrotation
                      JOINT RightHandMiddle3
                      {
                        OFFSET -4.348901 0.0 -0.0
                        CHANNELS 3 Zrotation Yrotation Xrotation
                        JOINT RightHandMiddle4
                        {
                          OFFSET -3.00024 -4e-06 -2e-06
                          CHANNELS 3 Zrotation Yrotation Xrotation
                          JOINT RightHandMiddleEnd
                          {
                            OFFSET -2.30252 -0.29437 -0.031706
                            CHANNELS 3 Zrotation Yrotation Xrotation
                          }
                        }
                      }
                    }
                  }
                  JOINT RightHandRing1
                  {
                    OFFSET -2.88569 -0.067952 -0.308858
                    CHANNELS 3 Zrotation Yrotation Xrotation
                    JOINT RightHandRing2
                    {
                      OFFSET -5.854198 -0.48613 -1.373731
                      CHANNELS 3 Zrotation Yrotation Xrotation
                      JOINT RightHandRing3
                      {
                        OFFSET -4.33881 -4e-06 -0.0
                        CHANNELS 3 Zrotation Yrotation Xrotation
                        JOINT RightHandRing4
                        {
                          OFFSET -2.654903 -4e-06 4e-06
                          CHANNELS 3 Zrotation Yrotation Xrotation
                          JOINT RightHandRingEnd
                          {
                            OFFSET -1.933568 0.077527 -5.2e-05
                            CHANNELS 3 Zrotation Yrotation Xrotation
                          }
                        }
                      }
                    }
                  }
                  JOINT RightHandPinky1
                  {
                    OFFSET -2.866425 -0.342796 -1.584145
                    CHANNELS 3 Zrotation Yrotation Xrotation
                    JOINT RightHandPinky2
                    {
                      OFFSET -5.091371 -1.332055 -1.772385
                      CHANNELS 3 Zrotation Yrotation Xrotation
                      JOINT RightHandPinky3
                      {
                        OFFSET -3.062664 -4e-06 1e-06
                        CHANNELS 3 Zrotation Yrotation Xrotation
                        JOINT RightHandPinky4
                        {
                          OFFSET -1.546529 4e-06 -2e-06
                          CHANNELS 3 Zrotation Yrotation Xrotation
                          JOINT RightHandPinkyEnd
                          {
                            OFFSET -1.945119 -0.157718 0.057211
                            CHANNELS 3 Zrotation Yrotation Xrotation
                          }
                        }
                      }
                    }
                  }
                }
              }
            }
          }
        }
      }
    }
    JOINT LeftLeg
    {
      OFFSET 10.043214 -8.434526 2.595655
      CHANNELS 3 Zrotation Yrotation Xrotation
      JOINT LeftShin
      {
        OFFSET -1e-06 -43.221752 -0.802913
        CHANNELS 3 Zrotation Yrotation Xrotation
        JOINT LeftFoot
        {
          OFFSET 1e-06 -42.155094 -3.481523
          CHANNELS 3 Zrotation Yrotation Xrotation
          JOINT LeftToeBase
          {
            OFFSET 0.0 -5.059472 13.231529
            CHANNELS 3 Zrotation Yrotation Xrotation
            JOINT LeftToeEnd
            {
              OFFSET -0.009607 -1.647619 6.513017
              CHANNELS 3 Zrotation Yrotation Xrotation
            }
          }
        }
      }
    }
    JOINT RightLeg
    {
      OFFSET -10.047278 -8.29526 2.620317
      CHANNELS 3 Zrotation Yrotation Xrotation
      JOINT RightShin
      {
        OFFSET 1e-06 -43.362206 -0.805556
        CHANNELS 3 Zrotation Yrotation Xrotation
        JOINT RightFoot
        {
          OFFSET 2e-06 -42.117393 -3.478398
          CHANNELS 3 Zrotation Yrotation Xrotation
          JOINT RightToeBase
          {
            OFFSET -0.0 -5.079609 13.284196
            CHANNELS 3 Zrotation Yrotation Xrotation
            JOINT RightToeEnd
            {
              OFFSET 0.009532 -1.634378 6.460591
              CHANNELS 3 Zrotation Yrotation Xrotation
            }
          }
        }
      }
    }
  }
}
MOTION
Frames: 4
Frame Time: 0.03333333333333333
0.0 0.0 0.0 0.0 -0.0 0.0 -0.062746 99.418869 5.986348 0.662344 -0.076027 -3.325502 -1.568928 -0.05821 -3.219848 -0.841921 -0.570414 -6.488898 -0.398648 -2.086355 15.703276 1.675466 2.218797 2.273923 -0.456819 1.260866 -3.646876 -1.183845 1.181198 -10.340154 7.7e-05 -2.3e-05 6e-06 0.017751 -0.075547 0.013225 0.715133 -3.805476 -10.570252 -0.682426 3.661707 -10.615095 -8.711715 -3.750795 17.200457 -57.011112 -18.76897 39.229286 -0.016121 -28.57793 -0.03093 11.607048 0.586712 0.420335 -5.882107 9.861284 0.702591 -10.936873 -0.360574 7.156203 -0.0 8.774826 -1e-06 -15.894941 18.046284 6.135256 -1.844031 2.498503 -2.507277 -10.163599 4.678944 4.621108 -20.976023 -2e-06 3e-06 -21.226286 2.451697 -3.593999 -1e-06 -7e-06 -0.0 -1.362681 2.240798 -0.746323 -21.334913 0.584909 3.008321 -13.821214 -2e-06 3e-06 -23.887171 -0.249079 -0.839482 -60.003204 2.526164 -1.153484 -0.294025 1.679687 0.833255 -14.218208 0.093215 1.300578 -34.212048 -0.287565 0.96717 -20.033211 0.964536 1.212842 0.0 -0.0 1e-06 -3.440388 0.788233 0.501655 -15.928185 -3.16731 2.999707 -6.338825 -1e-06 1e-06 -18.123444 3.648183 -4.905669 -4e-06 -0.0 -3e-06 11.376884 8.106727 17.76355 62.024654 11.920969 18.783381 0.161361 27.845377 0.064128 -9.699287 0.177371 -8.907339 2.24354 -5.255035 -3.180157 14.282887 -0.826593 6.952502 -3e-06 -12.6906 -1e-06 16.028486 -17.671818 2.749295 1.665666 -1.955921 -2.878299 4.727797 -4.170587 4.993922 11.020522 4e-06 -1e-06 12.109049 -3.735714 -2.866783 0.0 -0.0 -0.0 1.291985 -1.928548 -1.49809 14.800123 0.56747 3.865607 14.242566 -1.341736 -6.660656 19.631962 0.143927 -0.648243 49.645443 -0.459996 -6.128491 0.353029 -1.51115 -0.03194 20.222786 3.684309 2.316629 18.78727 5e-06 2e-06 10.751625 -0.479868 1.397907 0.0 0.0 1e-06 3.273806 0.305948 -0.580111 21.486809 11.83037 2.266133 8.162924 3e-06 1e-06 18.399076 -3.798982 -4.940575 2e-06 -1e-06 -0.0 4.094242 6.60476 6.012424 -0.013498 0.016748 4.76511 -7.41164 0.470274 -7.589381 1.633525 -1.88095 -1.715134 -0.0 -0.0 2e-06 -9.037827 -6.969872 1.356787 0.005065 0.001359 8.687516 12.415983 3.650583 -5.404172 -1.392312 1.016628 -2.693356 0.0 0.0 -1e-06 
0.0 0.0 0.0 0.0 -0.0 0.0 -0.060554 99.420044 6.142677 0.687828 -0.170521 -3.134757 -1.551872 -0.066371 -3.229297 -0.829073 -0.527753 -6.48115 -0.415623 -2.183997 15.628315 1.639085 2.269286 2.107033 -0.446193 1.324483 -3.633285 -1.195645 1.277111 -10.265984 7.7e-05 -2.2e-05 6e-06 0.016662 -0.057067 0.00884 0.714994 -3.786695 -10.566979 -0.684489 3.679419 -10.608467 -8.661918 -3.777156 17.163912 -57.178684 -18.837093 39.120621 -0.069109 -28.480181 -0.093155 11.742887 0.459481 0.712179 -5.882108 9.861284 0.70259 -10.936873 -0.360573 7.156207 -1e-06 8.774822 -0.0 -15.890712 18.004341 6.133075 -1.844032 2.498504 -2.507277 -10.163601 4.678946 4.621108 -20.976025 -1e-06 -0.0 -21.226292 2.451698 -3.594004 0.0 -7e-06 -0.0 -1.362683 2.240798 -0.746323 -21.334919 0.584913 3.008319 -13.821218 -1e-06 -0.0 -23.887175 -0.249079 -0.839488 -60.036304 2.488702 -1.067946 -0.294024 1.679687 0.833255 -14.218212 0.093217 1.300579 -34.212055 -0.287562 0.967165 -20.033218 0.964537 1.212839 0.0 -0.0 0.0 -3.44039 0.788234 0.501655 -15.928189 -3.167306 2.999704 -6.338827 0.0 0.0 -18.123453 3.648183 -4.905672 -4e-06 -0.0 -3e-06 11.334894 8.15446 17.732553 62.069679 12.008357 18.848749 0.136593 27.611969 0.047537 -9.805363 0.293068 -8.919725 2.243541 -5.255037 -3.180158 14.28289 -0.826596 6.952503 -1e-06 -12.690605 1e-06 16.089323 -17.682701 2.713625 1.665665 -1.95592 -2.8783 4.727798 -4.170588 4.993924 11.020526 3e-06 -2e-06 12.109052 -3.735716 -2.866786 0.0 -0.0 -0.0 1.291986 -1.92855 -1.49809 14.800125 0.567466 3.865609 14.242569 -1.341737 -6.660659 19.631964 0.143925 -0.648245 49.805233 -0.435491 -6.114137 0.353029 -1.51115 -0.03194 20.222788 3.684307 2.316629 18.78727 2e-06 0.0 10.751626 -0.47987 1.397904 1e-06 0.0 0.0 3.273807 0.305947 -0.580111 21.486813 11.830371 2.266134 8.162927 -0.0 -1e-06 18.399082 -3.798986 -4.940577 2e-06 -1e-06 -0.0 4.024013 6.610481 6.033045 -0.018674 -0.040385 4.464347 -7.460886 0.649662 -7.561645 1.633618 -1.901593 -1.784565 0.0 0.0 2e-06 -9.035165 -6.841485 1.207441 0.003338 0.007472 8.730313 12.344862 3.543561 -5.524213 -1.397935 1.004068 -2.758405 0.0 0.0 -1e-06 
0.0 0.0 0.0 0.0 -0.0 0.0 0.03376 99.413216 6.258926 0.735829 -0.258517 -2.921415 -1.550566 -0.083362 -3.245964 -0.820321 -0.526235 -6.493455 -0.414705 -2.226917 15.621872 1.600584 2.328609 1.932482 -0.426998 1.363866 -3.663906 -1.219254 1.347821 -10.176038 7.7e-05 -2.2e-05 6e-06 0.016907 -0.053966 0.00483 0.712931 -3.783455 -10.582603 -0.681938 3.681746 -10.618363 -8.626756 -3.834209 17.145761 -57.343689 -18.883181 39.015366 -0.066575 -28.42042 -0.152826 11.910128 0.373652 0.777059 -5.882113 9.861293 0.702592 -10.93688 -0.360573 7.15621 -1e-06 8.774831 1e-06 -15.912992 18.015316 6.123228 -1.844034 2.498506 -2.50728 -10.163609 4.67895 4.621111 -20.976044 -1e-06 2e-06 -21.226309 2.4517 -3.594005 0.0 -7e-06 -0.0 -1.362684 2.2408 -0.746323 -21.334932 0.584912 3.008324 -13.821227 -1e-06 1e-06 -23.887196 -0.249079 -0.839486 -60.03339 2.500205 -1.072166 -0.294024 1.679688 0.833256 -14.218221 0.093217 1.300581 -34.212082 -0.28756 0.967167 -20.03323 0.964537 1.212841 0.0 -0.0 0.0 -3.440391 0.788234 0.501658 -15.928201 -3.167308 2.999707 -6.338832 0.0 0.0 -18.123466 3.648188 -4.905677 -4e-06 -0.0 -3e-06 11.323902 8.199622 17.702839 62.066475 12.12281 18.950216 0.125061 27.39789 0.017925 -9.958074 0.354156 -9.000373 2.243545 -5.255041 -3.180159 14.282904 -0.826596 6.952505 -2e-06 -12.690618 -0.0 16.123379 -17.668238 2.701515 1.665668 -1.955922 -2.8783 4.727803 -4.170592 4.993927 11.020536 3e-06 -1e-06 12.109063 -3.735719 -2.866786 -0.0 -0.0 -0.0 1.291988 -1.928551 -1.49809 14.80014 0.567468 3.865608 14.242584 -1.341738 -6.660664 19.631985 0.143927 -0.648247 49.851437 -0.422509 -6.111114 0.35303 -1.511153 -0.03194 20.222811 3.684313 2.316628 18.787289 5e-06 -3e-06 10.751637 -0.479868 1.397904 0.0 0.0 0.0 3.27381 0.305947 -0.580112 21.486834 11.830388 2.266133 8.162936 2e-06 -3e-06 18.399101 -3.798988 -4.940584 3e-06 -0.0 -0.0 3.882582 6.587556 5.889705 -0.014475 -0.077672 4.48105 -7.403183 0.782178 -7.662466 1.634404 -1.9052 -1.824453 0.0 0.0 2e-06 -9.11663 -6.745505 0.975181 0.000955 0.010688 8.843994 12.405125 3.412948 -5.632437 -1.398518 1.003473 -2.761524 0.0 -0.0 -1e-06 
0.0 0.0 0.0 0.0 -0.0 0.0 0.124858 99.40554 6.349857 0.794932 -0.343334 -2.689906 -1.564823 -0.095896 -3.254081 -0.812276 -0.538677 -6.514259 -0.400698 -2.249077 15.63602 1.55472 2.384037 1.752902 -0.410657 1.412808 -3.695802 -1.21897 1.423218 -10.157214 7.7e-05 -2.3e-05 6e-06 0.016189 -0.05958 0.001576 0.710312 -3.787796 -10.600121 -0.680735 3.674214 -10.631474 -8.618138 -3.88417 17.154833 -57.499641 -18.939522 38.926502 -0.030054 -28.367403 -0.198103 12.148453 0.291628 0.804337 -5.882108 9.861288 0.702591 -10.936877 -0.360575 7.156207 1e-06 8.774829 0.0 -15.918569 18.017536 6.107974 -1.844033 2.498505 -2.507279 -10.163603 4.678946 4.621111 -20.97603 -4e-06 4e-06 -21.226295 2.451698 -3.594 -1e-06 -7e-06 -2e-06 -1.362682 2.240798 -0.746324 -21.334923 0.584909 3.008324 -13.82122 -3e-06 2e-06 -23.887182 -0.249079 -0.839482 -59.996643 2.514961 -1.089143 -0.294026 1.679688 0.833257 -14.218215 0.093214 1.30058 -34.212067 -0.287566 0.96717 -20.033222 0.964535 1.212845 0.0 -0.0 0.0 -3.440389 0.788233 0.501655 -15.928192 -3.167311 2.999707 -6.338829 -1e-06 1e-06 -18.123455 3.648183 -4.905672 -4e-06 -0.0 -2e-06 11.333928 8.227927 17.682041 62.030312 12.268511 19.230322 0.07831 27.232944 -0.01981 -10.018149 0.36201 -9.122346 2.243543 -5.255037 -3.180156 14.282894 -0.826595 6.952499 -3e-06 -12.690606 1e-06 16.13377 -17.643595 2.697699 1.665667 -1.955922 -2.878299 4.727799 -4.170587 4.993924 11.020528 3e-06 -2e-06 12.109054 -3.735715 -2.866784 -0.0 -0.0 -0.0 1.291986 -1.92855 -1.498089 14.800129 0.567468 3.865605 14.242575 -1.341735 -6.660656 19.631969 0.143926 -0.648243 49.806713 -0.436427 -6.107744 0.353029 -1.511151 -0.031939 20.222795 3.684309 2.316628 18.787279 4e-06 -2e-06 10.75163 -0.479868 1.397905 0.0 0.0 1e-06 3.273808 0.305948 -0.580112 21.48682 11.830378 2.266132 8.162928 1e-06 -3e-06 18.399088 -3.798984 -4.940577 2e-06 -0.0 1e-06 3.733518 6.613275 5.690721 -0.004654 -0.100419 4.565196 -7.315274 0.889469 -7.773579 1.633277 -1.904147 -1.872318 -0.0 0.0 2e-06 -9.206841 -6.666803 0.66424 -0.00455 0.00636 9.047644 12.509615 3.318023 -5.753203 -1.396425 1.000198 -2.776556 0.0 0.0 -1e-06 
